<svg width="200" height="200" viewBox="0 0 200 200" fill="none" xmlns="http://www.w3.org/2000/svg">
<circle cx="100" cy="100" r="100" fill="url(#paint0_linear_102:6)"/>
<path d="M147.512 83.8402C146.054 78.9183 143.557 74.3667 140.189 70.4925C136.667 66.5704 132.286 63.5163 127.388 61.569C121.493 59.0892 115.163 57.8092 108.769 57.8038H55.4158V58.9146L57.6372 59.7429C59.3271 60.4304 60.7704 61.6114 61.7789 63.1316C62.7956 64.6565 63.3039 66.332 63.3039 70.5114V131.884C63.2997 133.647 62.7758 135.369 61.7978 136.835C60.7841 138.351 59.3423 139.53 57.6561 140.224L55.4346 141.052V142.144H83.3724V141.052L81.1697 140.224C79.4748 139.537 78.0253 138.356 77.0092 136.835C75.9957 135.38 75.4387 133.657 75.409 131.884V103.118H95.3833C97.1803 103.107 98.9388 103.638 100.429 104.643C101.945 105.656 103.125 107.098 103.817 108.785V108.935H104.928V91.2199H103.817V91.3706C103.13 93.0604 101.949 94.5037 100.429 95.5123C98.9388 96.517 97.1803 97.0485 95.3833 97.0372H75.409V63.9788H108.769C118.464 63.9788 125.712 67.4992 130.494 73.7306C135.276 79.962 137.685 88.7914 137.685 100.351C137.685 111.91 135.313 120.777 130.494 126.989C124.582 134.633 116.845 140.996 100.975 140.996V142.125C114.153 142.125 122.173 141.052 127.331 138.887C132.229 136.94 136.611 133.886 140.133 129.964C143.492 126.105 145.989 121.574 147.456 116.673C150.593 105.947 150.593 94.5471 147.456 83.8213L147.512 83.8402Z" fill="white"/>
<defs>
<linearGradient id="paint0_linear_102:6" x1="20.1349" y1="37.2335" x2="169.414" y2="175.44" gradientUnits="userSpaceOnUse">
<stop stop-color="#FF7474"/>
<stop offset="1" stop-color="#FF4C8C"/>
</linearGradient>
</defs>
</svg>
