<svg width="200" height="200" viewBox="0 0 200 200" fill="none" xmlns="http://www.w3.org/2000/svg">
<circle cx="100" cy="100" r="92.8571" stroke="url(#paint0_linear_106:8)" stroke-width="14.2857"/>
<path fill-rule="evenodd" clip-rule="evenodd" d="M120.976 62.3859C118.889 61.1782 116.52 60.5446 114.109 60.5496H95.8942V93.9096H136.33V98.1302H63.6649V93.9033H77.1484V76.7024C77.1484 72.9342 76.8458 70.0945 76.2534 68.2263C75.6609 66.3581 74.6878 64.8689 73.3547 63.7668C72.0084 62.6763 70.0579 61.6926 67.5033 60.8156L63.6649 59.5V57.1429H136.335V84.1959H133.746C133.165 81.0898 132.268 78.0512 131.07 75.1273C129.971 72.4066 128.515 69.8439 126.741 67.5064C125.041 65.3244 123.119 63.6176 120.976 62.3859ZM63.6652 110.851V106.623H136.327V110.853H95.8864V128.054C95.8689 130.273 96.0185 132.49 96.334 134.687C96.6324 136.658 97.1685 138.189 97.9426 139.282C98.6935 140.357 99.65 141.272 100.757 141.975C101.85 142.678 103.443 143.335 105.535 143.947L110.259 145.262V147.619H63.6652V145.262L67.5035 143.947C69.3191 143.343 71.0575 142.529 72.6829 141.52C74.1115 140.597 75.2136 139.212 75.9877 137.379C76.7617 135.541 77.1487 132.432 77.1487 128.052V110.851H63.6652Z" fill="url(#paint1_linear_106:8)"/>
<defs>
<linearGradient id="paint0_linear_106:8" x1="171.429" y1="171.429" x2="28.5714" y2="28.5714" gradientUnits="userSpaceOnUse">
<stop stop-color="#FF4C8C"/>
<stop offset="1" stop-color="#FF7474"/>
</linearGradient>
<linearGradient id="paint1_linear_106:8" x1="65.1445" y1="61.2493" x2="146.058" y2="125.155" gradientUnits="userSpaceOnUse">
<stop stop-color="#FF7474"/>
<stop offset="1" stop-color="#FF4C8C"/>
</linearGradient>
</defs>
</svg>
